<svg width="53" height="52" viewBox="0 0 53 52" fill="none" xmlns="http://www.w3.org/2000/svg">
<path d="M24.3667 19.1999H28.6333V14.9333H24.3667M26.5 42.6666C17.092 42.6666 9.43334 35.0079 9.43334 25.5999C9.43334 16.1919 17.092 8.53327 26.5 8.53327C35.908 8.53327 43.5667 16.1919 43.5667 25.5999C43.5667 35.0079 35.908 42.6666 26.5 42.6666ZM26.5 4.2666C23.6985 4.2666 20.9244 4.8184 18.3361 5.89051C15.7478 6.96261 13.396 8.53401 11.4151 10.515C7.41428 14.5158 5.16667 19.942 5.16667 25.5999C5.16667 31.2579 7.41428 36.6841 11.4151 40.6849C13.396 42.6659 15.7478 44.2373 18.3361 45.3094C20.9244 46.3815 23.6985 46.9333 26.5 46.9333C32.158 46.9333 37.5842 44.6857 41.585 40.6849C45.5857 36.6841 47.8333 31.2579 47.8333 25.5999C47.8333 22.7984 47.2815 20.0243 46.2094 17.436C45.1373 14.8477 43.5659 12.496 41.585 10.515C39.604 8.53401 37.2522 6.96261 34.6639 5.89051C32.0756 4.8184 29.3015 4.2666 26.5 4.2666ZM24.3667 36.2666H28.6333V23.4666H24.3667V36.2666Z" fill="white"/>
</svg>
