<svg width="53" height="52" viewBox="0 0 53 52" fill="none" xmlns="http://www.w3.org/2000/svg">
<path d="M17.9667 11.0667C17.9667 12.7641 17.2924 14.392 16.0922 15.5922C14.8919 16.7925 13.2641 17.4667 11.5667 17.4667C9.86929 17.4667 8.24142 16.7925 7.04119 15.5922C5.84096 14.392 5.16667 12.7641 5.16667 11.0667C5.16667 9.36936 5.84096 7.7415 7.04119 6.54126C8.24142 5.34103 9.86929 4.66675 11.5667 4.66675C13.2641 4.66675 14.8919 5.34103 16.0922 6.54126C17.2924 7.7415 17.9667 9.36936 17.9667 11.0667ZM47.8333 11.0667C47.8333 12.7641 47.1591 14.392 45.9588 15.5922C44.7586 16.7925 43.1307 17.4667 41.4333 17.4667C39.736 17.4667 38.1081 16.7925 36.9079 15.5922C35.7076 14.392 35.0333 12.7641 35.0333 11.0667C35.0333 9.36936 35.7076 7.7415 36.9079 6.54126C38.1081 5.34103 39.736 4.66675 41.4333 4.66675C43.1307 4.66675 44.7586 5.34103 45.9588 6.54126C47.1591 7.7415 47.8333 9.36936 47.8333 11.0667ZM17.9667 40.9334C17.9667 42.6308 17.2924 44.2587 16.0922 45.4589C14.8919 46.6591 13.2641 47.3334 11.5667 47.3334C9.86929 47.3334 8.24142 46.6591 7.04119 45.4589C5.84096 44.2587 5.16667 42.6308 5.16667 40.9334C5.16667 39.236 5.84096 37.6082 7.04119 36.4079C8.24142 35.2077 9.86929 34.5334 11.5667 34.5334C13.2641 34.5334 14.8919 35.2077 16.0922 36.4079C17.2924 37.6082 17.9667 39.236 17.9667 40.9334ZM47.8333 40.9334C47.8333 42.6308 47.1591 44.2587 45.9588 45.4589C44.7586 46.6591 43.1307 47.3334 41.4333 47.3334C39.736 47.3334 38.1081 46.6591 36.9079 45.4589C35.7076 44.2587 35.0333 42.6308 35.0333 40.9334C35.0333 39.236 35.7076 37.6082 36.9079 36.4079C38.1081 35.2077 39.736 34.5334 41.4333 34.5334C43.1307 34.5334 44.7586 35.2077 45.9588 36.4079C47.1591 37.6082 47.8333 39.236 47.8333 40.9334Z" stroke="white" stroke-width="3.2"/>
<path d="M17.9667 40.9334H35.0333M17.9667 11.0668H35.0333M41.4333 34.5334V17.4668M11.5667 34.5334V17.4668" stroke="white" stroke-width="3.2" stroke-linecap="round"/>
</svg>
