<svg width="51" height="51" viewBox="0 0 51 51" fill="none" xmlns="http://www.w3.org/2000/svg">
<path d="M44.25 10.1751V33.6126C44.2487 33.835 44.2 34.0547 44.107 34.2568C44.0141 34.4588 43.879 34.6388 43.7109 34.7845C40.7266 37.3684 37.873 38.3001 35.1523 38.3001C31.459 38.3001 28.0098 36.5931 24.8008 35.0091C19.6152 32.4407 15.1074 30.2161 9.875 34.3489V42.9876C9.875 43.402 9.71038 43.7994 9.41735 44.0924C9.12433 44.3855 8.7269 44.5501 8.3125 44.5501C7.8981 44.5501 7.50067 44.3855 7.20765 44.0924C6.91462 43.7994 6.75 43.402 6.75 42.9876V10.1751C6.7515 9.95249 6.80054 9.73278 6.89385 9.53068C6.98715 9.32857 7.12256 9.14874 7.29102 9.00321C14.3223 2.91337 20.6328 6.03251 26.1953 8.78447C31.5547 11.4368 36.2012 13.7298 41.6641 9.00321C41.8899 8.80748 42.167 8.6806 42.4627 8.63762C42.7585 8.59463 43.0603 8.63734 43.3325 8.76068C43.6046 8.88402 43.8357 9.08283 43.9984 9.33352C44.161 9.58421 44.2483 9.87628 44.25 10.1751Z" fill="white"/>
</svg>
