<svg width="53" height="52" viewBox="0 0 53 52" fill="none" xmlns="http://www.w3.org/2000/svg">
<g clip-path="url(#clip0_337_87)">
<path fill-rule="evenodd" clip-rule="evenodd" d="M42.6184 0.382384C43.057 0.564047 43.4319 0.871703 43.6956 1.26644C43.9593 1.66117 44.1001 2.12526 44.1 2.59998V8.19998H49.7C50.1744 8.2004 50.638 8.34139 51.0323 8.60513C51.4266 8.86887 51.7338 9.24355 51.9153 9.68183C52.0968 10.1201 52.1443 10.6023 52.0519 11.0676C51.9595 11.5329 51.7312 11.9603 51.396 12.296L41.796 21.896C41.3463 22.3462 40.7363 22.5994 40.1 22.6H38.8936C39.5291 25.0615 39.4171 27.6566 38.572 30.0542C37.727 32.4519 36.1871 34.5437 34.1486 36.0628C32.1102 37.5819 29.6655 38.4597 27.1263 38.5841C24.5871 38.7085 22.0684 38.074 19.8912 36.7614C17.714 35.4488 15.977 33.5176 14.9016 31.214C13.8261 28.9105 13.461 26.3388 13.8528 23.8269C14.2446 21.315 15.3754 18.9767 17.1013 17.11C18.8271 15.2433 21.0697 13.9328 23.5432 13.3456C24.1628 13.1983 24.8154 13.3032 25.3576 13.6372C25.8998 13.9712 26.2872 14.5068 26.4344 15.1264C26.5817 15.7459 26.4768 16.3986 26.1428 16.9408C25.8088 17.483 25.2731 17.8703 24.6536 18.0176C23.0544 18.3962 21.6107 19.2582 20.5186 20.4863C19.4266 21.7144 18.7392 23.249 18.5501 24.8815C18.3609 26.5139 18.6791 28.1651 19.4613 29.6103C20.2436 31.0556 21.452 32.2249 22.9222 32.9592C24.3924 33.6936 26.0531 33.9573 27.6785 33.7146C29.3038 33.4719 30.815 32.7345 32.0066 31.6027C33.1981 30.4708 34.0121 28.9995 34.338 27.3888C34.6639 25.778 34.4858 24.106 33.828 22.6H33.092L28.196 27.496C27.9763 27.7318 27.7113 27.9209 27.4169 28.0521C27.1225 28.1833 26.8047 28.2538 26.4825 28.2595C26.1602 28.2652 25.8401 28.2059 25.5413 28.0852C25.2424 27.9645 24.971 27.7848 24.7431 27.5569C24.5152 27.329 24.3355 27.0575 24.2148 26.7587C24.0941 26.4599 24.0348 26.1398 24.0405 25.8175C24.0462 25.4953 24.1167 25.1775 24.2479 24.8831C24.3791 24.5887 24.5682 24.3237 24.804 24.104L29.7 19.208V12.2C29.7006 11.5637 29.9538 10.9536 30.404 10.504L40.004 0.903984C40.3394 0.568331 40.7668 0.339635 41.2321 0.246795C41.6975 0.153955 42.1799 0.201139 42.6184 0.382384ZM34.5 13.1952V17.8H39.108L43.908 13H39.3V8.39198L34.5 13.1952ZM16.324 7.65598C20.0721 5.55362 24.3793 4.66377 28.6536 5.10878C28.9671 5.14135 29.2839 5.11185 29.586 5.02198C29.8881 4.9321 30.1695 4.7836 30.4142 4.58495C30.6589 4.38631 30.8621 4.14141 31.0122 3.86425C31.1622 3.58708 31.2562 3.28308 31.2888 2.96958C31.3214 2.65609 31.2919 2.33926 31.202 2.03716C31.1121 1.73507 30.9636 1.45364 30.765 1.20894C30.5663 0.964241 30.3214 0.761061 30.0443 0.611005C29.7671 0.460948 29.4631 0.366952 29.1496 0.334384C23.8884 -0.213043 18.5868 0.882728 13.9737 3.47104C9.36057 6.05935 5.6625 10.0131 3.38792 14.7887C1.11334 19.5643 0.373933 24.9272 1.27136 30.1402C2.16879 35.3531 4.65899 40.1601 8.39957 43.9001C12.1402 47.6402 16.9475 50.1297 22.1605 51.0264C27.3736 51.9231 32.7364 51.1829 37.5117 48.9077C42.287 46.6324 46.2402 42.9338 48.8279 38.3204C51.4155 33.7069 52.5106 28.4051 51.9624 23.144C51.9298 22.8305 51.8358 22.5265 51.6858 22.2493C51.5357 21.9722 51.3325 21.7273 51.0878 21.5286C50.8431 21.33 50.5617 21.1815 50.2596 21.0916C49.9575 21.0017 49.6407 20.9722 49.3272 21.0048C49.0137 21.0374 48.7097 21.1313 48.4325 21.2814C48.1554 21.4315 47.9105 21.6346 47.7118 21.8793C47.5132 22.124 47.3647 22.4055 47.2748 22.7076C47.1849 23.0097 47.1554 23.3265 47.188 23.64C47.5778 27.3735 46.9499 31.143 45.371 34.5486C43.7921 37.9542 41.3209 40.8691 38.2196 42.9841C35.1184 45.099 31.5025 46.3354 27.7555 46.5619C24.0085 46.7884 20.2701 45.9966 16.9366 44.2706C13.6031 42.5446 10.7988 39.9486 8.82117 36.758C6.8435 33.5674 5.76615 29.901 5.70335 26.1477C5.64055 22.3944 6.59465 18.6941 8.46446 15.4391C10.3343 12.1841 13.0501 9.49575 16.324 7.65918V7.65598Z" fill="white"/>
</g>
<defs>
<clipPath id="clip0_337_87">
<rect width="51.2" height="51.2" fill="white" transform="translate(0.900002 0.199951)"/>
</clipPath>
</defs>
</svg>
