<svg width="53" height="52" viewBox="0 0 53 52" fill="none" xmlns="http://www.w3.org/2000/svg">
<g clip-path="url(#clip0_337_97)">
<path fill-rule="evenodd" clip-rule="evenodd" d="M32.9 13.4C32.9004 14.7239 32.4903 16.0155 31.7262 17.0967C30.962 18.1779 29.8815 18.9957 28.6333 19.4373V24.0666H35.0333C36.7307 24.0666 38.3586 24.7409 39.5588 25.9411C40.759 27.1414 41.4333 28.7692 41.4333 30.4666V32.9626C42.8573 33.4659 44.0575 34.4564 44.8218 35.759C45.5861 37.0616 45.8653 38.5925 45.61 40.0811C45.3547 41.5697 44.5813 42.9201 43.4267 43.8936C42.272 44.8671 40.8103 45.401 39.3 45.401C37.7897 45.401 36.328 44.8671 35.1733 43.8936C34.0187 42.9201 33.2453 41.5697 32.99 40.0811C32.7347 38.5925 33.0139 37.0616 33.7782 35.759C34.5425 34.4564 35.7427 33.4659 37.1667 32.9626V30.4666C37.1667 29.9008 36.9419 29.3582 36.5418 28.9581C36.1418 28.5581 35.5991 28.3333 35.0333 28.3333H17.9667C17.4009 28.3333 16.8582 28.5581 16.4582 28.9581C16.0581 29.3582 15.8333 29.9008 15.8333 30.4666V32.9626C17.2573 33.4659 18.4575 34.4564 19.2218 35.759C19.9861 37.0616 20.2653 38.5925 20.01 40.0811C19.7547 41.5697 18.9813 42.9201 17.8267 43.8936C16.672 44.8671 15.2103 45.401 13.7 45.401C12.1897 45.401 10.728 44.8671 9.57334 43.8936C8.41865 42.9201 7.64531 41.5697 7.39 40.0811C7.13469 38.5925 7.41386 37.0616 8.17816 35.759C8.94246 34.4564 10.1427 33.4659 11.5667 32.9626V30.4666C11.5667 28.7692 12.2409 27.1414 13.4412 25.9411C14.6414 24.7409 16.2693 24.0666 17.9667 24.0666H24.3667V19.4373C23.2598 19.0465 22.2816 18.359 21.5392 17.4498C20.7967 16.5406 20.3185 15.4448 20.1568 14.2822C19.9951 13.1195 20.1561 11.9348 20.6223 10.8576C21.0886 9.78028 21.842 8.85192 22.8002 8.17395C23.7585 7.49599 24.8847 7.09453 26.0557 7.01346C27.2267 6.93239 28.3975 7.17483 29.44 7.71427C30.4826 8.25372 31.3567 9.06941 31.9669 10.0722C32.5772 11.0749 32.8999 12.2261 32.9 13.4ZM26.5 11.2666C25.9342 11.2666 25.3916 11.4914 24.9915 11.8915C24.5914 12.2915 24.3667 12.8342 24.3667 13.4C24.3667 13.9658 24.5914 14.5084 24.9915 14.9085C25.3916 15.3085 25.9342 15.5333 26.5 15.5333C27.0658 15.5333 27.6084 15.3085 28.0085 14.9085C28.4086 14.5084 28.6333 13.9658 28.6333 13.4C28.6333 12.8342 28.4086 12.2915 28.0085 11.8915C27.6084 11.4914 27.0658 11.2666 26.5 11.2666ZM13.7 36.8666C13.1342 36.8666 12.5916 37.0914 12.1915 37.4915C11.7914 37.8915 11.5667 38.4342 11.5667 39C11.5667 39.5658 11.7914 40.1084 12.1915 40.5085C12.5916 40.9085 13.1342 41.1333 13.7 41.1333C14.2658 41.1333 14.8084 40.9085 15.2085 40.5085C15.6086 40.1084 15.8333 39.5658 15.8333 39C15.8333 38.4342 15.6086 37.8915 15.2085 37.4915C14.8084 37.0914 14.2658 36.8666 13.7 36.8666ZM39.3 36.8666C38.7342 36.8666 38.1916 37.0914 37.7915 37.4915C37.3914 37.8915 37.1667 38.4342 37.1667 39C37.1667 39.5658 37.3914 40.1084 37.7915 40.5085C38.1916 40.9085 38.7342 41.1333 39.3 41.1333C39.8658 41.1333 40.4084 40.9085 40.8085 40.5085C41.2086 40.1084 41.4333 39.5658 41.4333 39C41.4333 38.4342 41.2086 37.8915 40.8085 37.4915C40.4084 37.0914 39.8658 36.8666 39.3 36.8666Z" fill="white"/>
</g>
<defs>
<clipPath id="clip0_337_97">
<rect width="51.2" height="51.2" fill="white" transform="translate(0.900002 0.599976)"/>
</clipPath>
</defs>
</svg>
